<svg xmlns="http://www.w3.org/2000/svg" viewBox="0 0 600 200" width="600" height="200" role="img" aria-label="Saveurs Nomades Logo">
  <defs>
    <linearGradient id="g1" x1="0" x2="1">
      <stop offset="0" stop-color="#D97706"/>
      <stop offset="1" stop-color="#059669"/>
    </linearGradient>
    <style>
      .ln-brand{font-family: 'Montserrat';font-weight:700;letter-spacing:1px}
      .ln-tag{font-family: 'Montserrat';font-weight:400;font-size:28px;opacity:0.85}
    </style>
  </defs>
  <rect width="100%" height="100%" fill="none"/>
  <g transform="translate(30,20)">
    <circle cx="70" cy="70" r="60" fill="url(#g1)"/>
    <g transform="translate(42,38)" fill="#fff">
      <path d="M18 0c-2 0-4 1-5 2l-6 10 2 1 6-10c1-1 3-1 4 0l7 12c1 1 0 3-1 4l-2 1-7-12-4 7-2 1 6 10 1 1 1 0 0 0c5 0 10-4 11-9 1-6-2-12-8-15l-3-1z"/>
    </g>
  </g>
  <text x="160" y="80" class="ln-brand" font-size="48" fill="#111">Saveurs</text>
  <text x="160" y="120" class="ln-tag" fill="#333">Nomades</text>
</svg>
